<svg width="32" height="33" viewBox="0 0 32 33" fill="none" xmlns="http://www.w3.org/2000/svg">
<g clip-path="url(#clip0_67_447)">
<path d="M22 4.5C26.0507 4.5 29.3334 7.83333 29.3334 12.5C29.3334 21.8333 19.3334 27.1667 16 29.1667C12.6667 27.1667 2.66669 21.8333 2.66669 12.5C2.66669 7.83333 6.00002 4.5 10 4.5C12.48 4.5 14.6667 5.83333 16 7.16667C17.3334 5.83333 19.52 4.5 22 4.5ZM17.2454 25.3053C18.42 24.564 19.48 23.8267 20.472 23.0373C24.4467 19.8773 26.6667 16.424 26.6667 12.5C26.6667 9.35333 24.6174 7.16667 22 7.16667C20.5654 7.16667 19.0134 7.92667 17.8854 9.052L16 10.9373L14.1147 9.052C12.9867 7.92667 11.4347 7.16667 10 7.16667C7.41335 7.16667 5.33335 9.37467 5.33335 12.5C5.33335 16.4253 7.55469 19.8773 11.5267 23.0373C12.52 23.8267 13.58 24.564 14.7547 25.304C15.1534 25.556 15.548 25.7973 16 26.0667C16.452 25.7973 16.8467 25.556 17.2454 25.3053Z" fill="black"/>
</g>
<defs>
<clipPath id="clip0_67_447">
<rect width="32" height="32" fill="white" transform="translate(0 0.5)"/>
</clipPath>
</defs>
</svg>
