<svg width="32" height="33" viewBox="0 0 32 33" fill="none" xmlns="http://www.w3.org/2000/svg">
<g clip-path="url(#clip0_207_356)">
<path d="M5.33331 29.8333C5.33331 27.0044 6.45712 24.2913 8.45751 22.2909C10.4579 20.2905 13.171 19.1667 16 19.1667C18.829 19.1667 21.5421 20.2905 23.5425 22.2909C25.5428 24.2913 26.6666 27.0044 26.6666 29.8333H24C24 27.7116 23.1571 25.6768 21.6568 24.1765C20.1565 22.6762 18.1217 21.8333 16 21.8333C13.8782 21.8333 11.8434 22.6762 10.3431 24.1765C8.84283 25.6768 7.99998 27.7116 7.99998 29.8333H5.33331ZM16 17.8333C11.58 17.8333 7.99998 14.2533 7.99998 9.83334C7.99998 5.41334 11.58 1.83334 16 1.83334C20.42 1.83334 24 5.41334 24 9.83334C24 14.2533 20.42 17.8333 16 17.8333ZM16 15.1667C18.9466 15.1667 21.3333 12.78 21.3333 9.83334C21.3333 6.88668 18.9466 4.50001 16 4.50001C13.0533 4.50001 10.6666 6.88668 10.6666 9.83334C10.6666 12.78 13.0533 15.1667 16 15.1667Z" fill="black"/>
</g>
<defs>
<clipPath id="clip0_207_356">
<rect width="32" height="32" fill="white" transform="translate(0 0.5)"/>
</clipPath>
</defs>
</svg>
